<?xml version="1.0" standalone="no"?>
<!DOCTYPE svg PUBLIC "-//W3C//DTD SVG 20010904//EN"
 "http://www.w3.org/TR/2001/REC-SVG-20010904/DTD/svg10.dtd">
<svg version="1.0" xmlns="http://www.w3.org/2000/svg"
 width="700.000000pt" height="700.000000pt" viewBox="0 0 700.000000 700.000000"
 preserveAspectRatio="xMidYMid meet">
<metadata>
Created by potrace 1.11, written by Peter Selinger 2001-2013
</metadata>
<g transform="translate(0.000000,700.000000) scale(0.100000,-0.100000)"
fill="#000000" stroke="none">
<path d="M3278 6996 c-1 -2 -41 -6 -88 -10 -87 -7 -105 -9 -225 -27 -116 -18
-123 -19 -192 -35 -154 -34 -203 -47 -313 -81 -258 -79 -583 -228 -815 -374
-696 -437 -1220 -1109 -1475 -1889 -28 -87 -75 -256 -85 -311 -3 -13 -11 -58
-20 -99 -29 -147 -36 -200 -52 -370 -15 -164 -8 -592 12 -711 2 -13 6 -46 9
-74 9 -78 23 -156 51 -285 31 -142 109 -391 174 -555 63 -156 245 -505 298
-570 4 -6 29 -42 54 -80 169 -256 439 -546 719 -770 92 -74 370 -265 386 -265
4 0 15 -6 23 -14 27 -23 261 -140 397 -198 265 -114 602 -207 869 -243 22 -2
56 -7 75 -10 186 -26 697 -27 837 -1 17 3 104 16 148 21 324 41 869 235 1167
415 37 22 70 40 73 40 3 0 11 5 18 10 7 6 62 44 124 84 234 156 463 352 637
546 27 30 63 71 81 91 53 58 194 247 261 349 205 313 359 657 455 1017 17 62
32 123 35 136 19 95 54 303 59 352 4 33 9 71 11 85 9 47 11 525 3 605 -15 165
-21 220 -24 225 -2 3 -6 30 -10 60 -17 137 -88 417 -153 600 -269 764 -806
1425 -1494 1837 -125 75 -310 171 -398 208 -36 14 -80 33 -98 41 -156 71 -562
184 -752 209 -19 3 -46 7 -60 10 -13 2 -52 7 -86 11 -33 3 -74 8 -90 10 -33 5
-540 14 -546 10z m-1852 -2041 c1 -790 3 -846 45 -1014 80 -321 285 -518 579
-557 61 -8 191 -8 239 1 17 3 45 7 61 10 94 16 229 92 311 175 116 117 194
294 224 510 15 102 18 260 19 880 l1 705 210 2 c115 1 212 -2 215 -6 7 -13 4
-1399 -4 -1501 -7 -91 -9 -106 -32 -240 -61 -344 -258 -633 -534 -784 -172
-93 -326 -129 -570 -130 -224 -1 -329 12 -464 61 -260 93 -452 268 -576 522
-34 68 -66 150 -75 191 -2 8 -13 51 -24 95 -45 177 -49 267 -50 1051 l-1 742
212 -2 213 -1 1 -710z m2810 538 c66 -95 177 -258 247 -361 71 -103 171 -250
223 -327 52 -77 103 -151 113 -164 l18 -24 69 102 c121 178 540 793 595 873
l53 76 223 0 222 0 -31 -47 c-34 -49 -203 -290 -319 -456 -191 -271 -307 -437
-354 -505 -28 -41 -91 -131 -140 -200 -48 -69 -90 -132 -92 -141 -3 -9 2 -25
11 -35 8 -11 31 -41 50 -69 19 -27 52 -75 73 -105 21 -30 82 -118 135 -195 54
-77 102 -147 108 -155 6 -8 67 -96 136 -195 69 -99 132 -189 140 -200 22 -31
134 -191 197 -282 l57 -83 -224 0 -223 0 -131 193 c-354 523 -554 817 -558
817 -2 0 -31 -42 -65 -92 -34 -51 -105 -156 -157 -233 -178 -263 -278 -410
-371 -547 l-93 -138 -225 0 c-210 0 -223 1 -213 18 12 19 47 69 550 788 195
279 355 508 355 509 0 1 -113 163 -252 361 -139 197 -347 494 -462 659 -116
165 -215 305 -221 312 -5 7 -10 14 -10 17 0 3 101 5 224 4 l224 0 118 -175z
m-2653 -2840 c3 -10 24 -52 47 -93 23 -41 60 -109 82 -150 41 -75 58 -107 138
-255 24 -44 64 -118 90 -165 26 -47 60 -109 75 -138 15 -29 29 -52 30 -50 2 3
87 159 118 218 20 38 59 109 236 437 l115 211 118 1 118 2 1 -28 c1 -16 2
-333 2 -707 2 -541 -1 -680 -11 -683 -7 -3 -57 -6 -112 -7 -83 -1 -100 2 -101
14 0 8 -1 237 -1 508 0 396 -2 490 -12 475 -7 -10 -29 -47 -48 -83 -20 -36
-48 -87 -63 -115 -15 -27 -42 -77 -60 -110 -18 -33 -46 -85 -62 -115 -17 -30
-61 -111 -98 -180 -37 -69 -71 -130 -76 -135 -10 -14 -131 -13 -136 1 -2 5
-81 151 -176 324 -94 173 -185 341 -202 372 -16 31 -32 55 -34 52 -2 -2 -4
-229 -4 -504 l0 -500 -112 0 -112 0 0 709 0 710 122 0 c109 1 123 -1 128 -16z
m1985 -354 c158 -32 260 -118 308 -259 15 -47 18 -91 20 -306 2 -257 6 -287
42 -298 15 -5 17 -17 16 -93 -1 -49 -2 -91 -3 -95 0 -5 -34 -8 -73 -8 -55 0
-81 5 -105 20 -36 21 -63 75 -63 123 l0 31 -47 -46 c-103 -100 -222 -144 -370
-136 -141 7 -241 68 -301 182 -22 43 -26 64 -27 136 0 101 16 142 85 211 124
124 371 158 613 83 17 -5 18 0 13 70 -6 87 -22 129 -62 170 -96 96 -283 92
-458 -10 -68 -41 -69 -40 -108 47 l-25 56 21 13 c75 47 189 94 261 107 17 2
31 6 32 7 9 8 185 5 231 -5z m1182 -100 l0 -99 -32 0 c-82 0 -199 -49 -261
-109 -74 -69 -74 -70 -72 -406 0 -165 -2 -309 -6 -320 -5 -17 -15 -19 -103
-18 -54 1 -101 4 -104 8 -4 4 -7 238 -8 521 l0 514 38 1 c21 0 56 1 78 1 96 0
88 6 88 -69 0 -38 0 -88 1 -112 l1 -45 28 45 c63 98 169 173 268 188 84 12 84
12 84 -100z m223 92 c50 -1 57 -4 57 -20 0 -11 4 -22 9 -25 5 -3 12 -18 16
-33 3 -16 12 -41 20 -58 7 -16 23 -57 35 -90 12 -33 28 -73 35 -90 7 -16 54
-141 106 -278 61 -163 96 -242 101 -233 8 14 43 117 204 596 42 124 77 226 79
228 4 5 197 3 201 -1 4 -3 -400 -1112 -426 -1172 -5 -11 -18 -47 -30 -80 -43
-121 -125 -204 -227 -230 -51 -13 -180 -12 -194 2 -4 4 -8 40 -9 78 -3 122 -9
112 65 107 46 -3 71 0 88 11 27 17 68 90 101 179 l24 64 -47 115 c-26 63 -83
200 -126 304 -42 105 -83 204 -90 220 -65 145 -163 400 -156 405 5 3 31 4 58
3 26 -1 74 -2 106 -2z"/>
<path d="M3327 1745 c-55 -15 -103 -45 -132 -84 -15 -20 -20 -41 -20 -92 0
-55 4 -71 26 -100 44 -57 100 -79 194 -76 98 3 168 33 235 102 l45 46 0 86 0
87 -60 19 c-75 23 -223 29 -288 12z"/>
</g>
</svg>
